# xmcd
#
# Track frame offsets: 
#        150
#        15855
#        26177
#
# Disc length: 496 seconds
#
# Revision: 0
# Processed by: cddbd v1.5PL3 Copyright (c) Steve Scherf et al.
# Submitted via: ExactAudioCopy v0.95a3
#
DISCID=1601ee03
DTITLE=Spread - New World
DYEAR=1900
DGENRE=Punk Rock
TTITLE0=new world
TTITLE1=please smile for me
TTITLE2=our big hope
EXTD=
EXTT0=
EXTT1=
EXTT2=
PLAYORDER=
